<?xml version="1.0" encoding="UTF-8" standalone="no"?>
<svg
   xmlns:dc="http://purl.org/dc/elements/1.1/"
   xmlns:cc="http://creativecommons.org/ns#"
   xmlns:rdf="http://www.w3.org/1999/02/22-rdf-syntax-ns#"
   xmlns:svg="http://www.w3.org/2000/svg"
   xmlns="http://www.w3.org/2000/svg"
   style="enable-background:new"
   id="svg8"
   version="1.1"
   viewBox="0 0 1199.9996 1199.9996"
   height="1199.9996mm"
   width="1199.9996mm">
  <defs
     id="defs2">
    <filter
       id="filter916"
       style="color-interpolation-filters:sRGB">
      <feBlend
         id="feBlend918"
         in2="BackgroundImage"
         mode="lighten" />
    </filter>
  </defs>
  <metadata
     id="metadata5">
    <rdf:RDF>
      <cc:Work
         rdf:about="">
        <dc:format>image/svg+xml</dc:format>
        <dc:type
           rdf:resource="http://purl.org/dc/dcmitype/StillImage" />
        <dc:title></dc:title>
      </cc:Work>
    </rdf:RDF>
  </metadata>
  <g
     transform="translate(319.90129,623.72319)"
     style="display:inline;filter:url(#filter916)"
     id="layer1">
    <path
       d="M 224.50639,303.94899 -10.367684,186.69132 -193.11586,375.15433 -209.00477,113.11857 -463.59261,49.085516 -244.60745,-95.692563 -316.44711,-348.18863 -81.573036,-230.93095 101.17514,-419.39396 117.06405,-157.35821 371.65189,-93.325148 152.66673,51.452931 Z"
       id="path817"
       style="opacity:0;fill:#ff28c5;fill-opacity:1;stroke-width:0.26458332" />
    <path
       id="rect4978"
       transform="matrix(0.26458333,0,0,0.26458333,-319.90129,-623.72319)"
       d="M 4.0410156 1.8671875 L 4.0410156 4543.5137 L 4537.6055 4543.5137 L 4537.6055 1.8671875 L 4.0410156 1.8671875 z M 1839.7734 2445.5996 C 2108.9904 2446.4994 2939.0186 2556.4475 2994.0918 2608.0605 C 3057.5996 2667.5783 3265.2903 3750.4097 3228.3105 3829.2012 C 3191.3308 3907.9927 2225.6751 4440.1305 2139.3125 4429.3086 C 2052.9499 4418.4866 1248.4538 3664.5345 1232.0586 3579.0547 C 1215.6634 3493.5748 1684.112 2495.4684 1760.3418 2453.4609 C 1770.4661 2447.8818 1798.542 2445.4618 1839.7734 2445.5996 z "
       style="opacity:1;fill:#00c6d0;fill-opacity:1;stroke:#7df0f7;stroke-width:11.33858299;stroke-miterlimit:4;stroke-dasharray:none;stroke-opacity:1" />
  </g>
</svg>
