<?xml version="1.0" encoding="UTF-8" standalone="no"?>
<svg
   xmlns:dc="http://purl.org/dc/elements/1.1/"
   xmlns:cc="http://creativecommons.org/ns#"
   xmlns:rdf="http://www.w3.org/1999/02/22-rdf-syntax-ns#"
   xmlns:svg="http://www.w3.org/2000/svg"
   xmlns="http://www.w3.org/2000/svg"
   style="enable-background:new"
   id="svg8"
   version="1.1"
   viewBox="0 0 1199.9996 1199.9996"
   height="1199.9996mm"
   width="1199.9996mm">
  <defs
     id="defs2">
    <filter
       id="filter916"
       style="color-interpolation-filters:sRGB">
      <feBlend
         id="feBlend918"
         in2="BackgroundImage"
         mode="lighten" />
    </filter>
  </defs>
  <metadata
     id="metadata5">
    <rdf:RDF>
      <cc:Work
         rdf:about="">
        <dc:format>image/svg+xml</dc:format>
        <dc:type
           rdf:resource="http://purl.org/dc/dcmitype/StillImage" />
        <dc:title></dc:title>
      </cc:Work>
    </rdf:RDF>
  </metadata>
  <g
     transform="translate(323.03455,323.03455)"
     style="display:none"
     id="layer2">
    <path
       id="rect4774"
       d="M -323.03454,-323.03455 V 876.96508 H 876.96508 V -323.03455 Z M 204.15292,0.00207189 c 24.19887,-0.41988 265.56283,64.42316011 275.45761,74.31794011 10.13225,10.13226 77.8819,262.977328 74.17324,276.818238 C 550.0751,364.97919 364.97919,550.0751 351.13826,553.78376 337.29735,557.49243 84.452277,489.74277 74.320017,479.61052 64.187757,469.47825 -3.5618931,216.63268 0.14676689,202.79176 3.8554369,188.95083 188.95083,3.8554309 202.79176,0.14676589 c 0.3244,-0.08692 0.78039,-0.134617 1.36116,-0.144694 z"
       style="opacity:1;fill:#00c6d0;fill-opacity:1;stroke:#7df0f7;stroke-width:3;stroke-miterlimit:4;stroke-dasharray:none;stroke-opacity:1" />
  </g>
  <g
     transform="translate(319.90129,623.72319)"
     style="display:inline;filter:url(#filter916)"
     id="layer1">
    <path
       d="M 224.50639,303.94899 -10.367684,186.69132 -193.11586,375.15433 -209.00477,113.11857 -463.59261,49.085516 -244.60745,-95.692563 -316.44711,-348.18863 -81.573036,-230.93095 101.17514,-419.39396 117.06405,-157.35821 371.65189,-93.325148 152.66673,51.452931 Z"
       id="path817"
       style="opacity:0;fill:#ff28c5;fill-opacity:1;stroke-width:0.26458332" />
    <path
       id="rect4889"
       transform="matrix(0.26458333,0,0,0.26458333,-319.90129,-623.72319)"
       d="M 3.1074219 -4.9746094 L 3.1074219 4540.4062 L 4532.3242 4540.4062 L 4532.3242 -4.9746094 L 3.1074219 -4.9746094 z M 2594.2715 1015.8555 C 2596.3878 1015.9146 2598.3301 1016.1747 2600.0918 1016.6426 C 2750.4198 1056.5642 3289.6981 3051.398 3179.9609 3161.625 C 3070.2238 3271.852 1073.0088 2741.4631 1032.418 2591.3145 C 992.3028 2442.9253 2415.7981 1010.8645 2594.2715 1015.8555 z "
       style="opacity:1;fill:#00c6d0;fill-opacity:1;stroke:#7df0f7;stroke-width:11.33858299;stroke-miterlimit:4;stroke-dasharray:none;stroke-opacity:1" />
  </g>
  <g
     style="display:none"
     id="layer3" />
</svg>
