<?xml version="1.0" encoding="UTF-8" standalone="no"?>
<svg
   xmlns:dc="http://purl.org/dc/elements/1.1/"
   xmlns:cc="http://creativecommons.org/ns#"
   xmlns:rdf="http://www.w3.org/1999/02/22-rdf-syntax-ns#"
   xmlns:svg="http://www.w3.org/2000/svg"
   xmlns="http://www.w3.org/2000/svg"
   style="enable-background:new"
   id="svg8"
   version="1.1"
   viewBox="0 0 1199.9996 1199.9996"
   height="1199.9996mm"
   width="1199.9996mm">
  <defs
     id="defs2">
    <filter
       id="filter916"
       style="color-interpolation-filters:sRGB">
      <feBlend
         id="feBlend918"
         in2="BackgroundImage"
         mode="lighten" />
    </filter>
  </defs>
  <metadata
     id="metadata5">
    <rdf:RDF>
      <cc:Work
         rdf:about="">
        <dc:format>image/svg+xml</dc:format>
        <dc:type
           rdf:resource="http://purl.org/dc/dcmitype/StillImage" />
        <dc:title></dc:title>
      </cc:Work>
    </rdf:RDF>
  </metadata>
  <g
     transform="translate(319.90129,623.72319)"
     style="display:inline;filter:url(#filter916)"
     id="layer1">
    <path
       d="M 224.50639,303.94899 -10.367684,186.69132 -193.11586,375.15433 -209.00477,113.11857 -463.59261,49.085516 -244.60745,-95.692563 -316.44711,-348.18863 -81.573036,-230.93095 101.17514,-419.39396 117.06405,-157.35821 371.65189,-93.325148 152.66673,51.452931 Z"
       id="path817"
       style="opacity:0;fill:#ff28c5;fill-opacity:1;stroke-width:0.26458332" />
    <path
       id="rect5061"
       transform="matrix(0.26458333,0,0,0.26458333,-319.90129,-623.72319)"
       d="M 4.0410156 -6.2148438 L 4.0410156 4551.5938 L 4537.6055 4551.5938 L 4537.6055 -6.2148438 L 4.0410156 -6.2148438 z M 2426.9824 1280.9082 C 2429.775 1280.8745 2432.0198 1280.9891 2433.6797 1281.2617 C 2486.7961 1289.9869 3055.636 1643.0721 3087.0254 1686.8008 C 3118.4148 1730.5294 3270.9771 2382.4304 3262.252 2435.5469 C 3253.5268 2488.6633 2900.4396 3057.5032 2856.7109 3088.8926 C 2812.9823 3120.2819 2161.0833 3272.8443 2107.9668 3264.1191 C 2054.8503 3255.394 1486.0085 2902.3068 1454.6191 2858.5781 C 1423.2298 2814.8495 1270.6694 2162.9485 1279.3945 2109.832 C 1288.1197 2056.7156 1641.205 1487.8757 1684.9336 1456.4863 C 1727.2957 1426.0779 2340.4132 1281.9538 2426.9824 1280.9082 z "
       style="opacity:1;fill:#00c6d0;fill-opacity:1;stroke:#7df0f7;stroke-width:11.33858299;stroke-miterlimit:4;stroke-dasharray:none;stroke-opacity:1" />
  </g>
</svg>
