<?xml version="1.0" encoding="UTF-8" standalone="no"?>
<svg
   xmlns:dc="http://purl.org/dc/elements/1.1/"
   xmlns:cc="http://creativecommons.org/ns#"
   xmlns:rdf="http://www.w3.org/1999/02/22-rdf-syntax-ns#"
   xmlns:svg="http://www.w3.org/2000/svg"
   xmlns="http://www.w3.org/2000/svg"
   style="enable-background:new"
   id="svg8"
   version="1.1"
   viewBox="0 0 1199.9996 1199.9996"
   height="1199.9996mm"
   width="1199.9996mm">
  <defs
     id="defs2">
    <filter
       id="filter916"
       style="color-interpolation-filters:sRGB">
      <feBlend
         id="feBlend918"
         in2="BackgroundImage"
         mode="lighten" />
    </filter>
  </defs>
  <metadata
     id="metadata5">
    <rdf:RDF>
      <cc:Work
         rdf:about="">
        <dc:format>image/svg+xml</dc:format>
        <dc:type
           rdf:resource="http://purl.org/dc/dcmitype/StillImage" />
        <dc:title></dc:title>
      </cc:Work>
    </rdf:RDF>
  </metadata>
  <g
     transform="translate(319.90129,623.72319)"
     style="display:inline;filter:url(#filter916)"
     id="layer1">
    <path
       d="M 224.50639,303.94899 -10.367684,186.69132 -193.11586,375.15433 -209.00477,113.11857 -463.59261,49.085516 -244.60745,-95.692563 -316.44711,-348.18863 -81.573036,-230.93095 101.17514,-419.39396 117.06405,-157.35821 371.65189,-93.325148 152.66673,51.452931 Z"
       id="path817"
       style="opacity:0;fill:#ff28c5;fill-opacity:1;stroke-width:0.26458332" />
    <path
       id="rect5061"
       transform="matrix(0.26458333,0,0,0.26458333,-319.90129,-623.72319)"
       d="M 4.0410156 -6.2148438 L 4.0410156 4551.5938 L 4537.6055 4551.5938 L 4537.6055 -6.2148438 L 4.0410156 -6.2148438 z M 2368.0371 1260.8926 C 2368.5974 1260.9066 2369.1175 1260.9375 2369.5977 1260.9844 C 2431.0525 1266.9843 3089.7671 1667.3388 3123.3926 1719.127 C 3157.0181 1770.9152 3254.7081 2535.5344 3235.1836 2594.1133 C 3215.6591 2652.6922 2678.7651 3205.804 2620.793 3227.0625 C 2562.8208 3248.321 1795.6328 3173.4196 1742.8672 3141.3496 C 1690.1016 3109.2796 1270.3274 2462.7667 1262.502 2401.5176 C 1254.6765 2340.2685 1498.4164 1608.9822 1541.4238 1564.6758 C 1584.0952 1520.7155 2296.8768 1259.117 2368.0371 1260.8926 z "
       style="opacity:1;fill:#00c6d0;fill-opacity:1;stroke:#7df0f7;stroke-width:11.33858299;stroke-miterlimit:4;stroke-dasharray:none;stroke-opacity:1" />
  </g>
</svg>
